<?xml version="1.0" encoding="iso-8859-1"?>
<!-- Generator: Adobe Illustrator 25.2.1, SVG Export Plug-In . SVG Version: 6.00 Build 0)  -->
<svg version="1.1" id="Layer_1" xmlns="http://www.w3.org/2000/svg" xmlns:xlink="http://www.w3.org/1999/xlink" x="0px" y="0px"
	 viewBox="0 0 48 48" style="enable-background:new 0 0 48 48;" xml:space="preserve">
<linearGradient id="SVGID_1_" gradientUnits="userSpaceOnUse" x1="16.2854" y1="2.8044" x2="34.7701" y2="53.5906">
	<stop  offset="0" style="stop-color:#F44F5A"/>
	<stop  offset="0.443" style="stop-color:#EE3D4A"/>
	<stop  offset="1" style="stop-color:#E52030"/>
</linearGradient>
<path style="fill:url(#SVGID_1_);" d="M30.261,42H17.739C9.84,42,6,38.16,6,30.261V17.739C6,9.84,9.84,6,17.739,6h12.522
	C38.16,6,42,9.84,42,17.739v11.739C42,38.021,38.27,42,30.261,42z"/>
<g>
	<g style="opacity:0.05;">
		<path d="M24,10.5c7.456,0,13.5,6.044,13.5,13.5S31.456,37.5,24,37.5S10.5,31.456,10.5,24S16.544,10.5,24,10.5 M24,9.5
			C16.005,9.5,9.5,16.005,9.5,24S16.005,38.5,24,38.5S38.5,31.995,38.5,24S31.995,9.5,24,9.5L24,9.5z"/>
	</g>
	<g style="opacity:0.07;">
		<path d="M24,10.5c7.456,0,13.5,6.044,13.5,13.5S31.456,37.5,24,37.5S10.5,31.456,10.5,24S16.544,10.5,24,10.5 M24,10
			c-7.72,0-14,6.28-14,14s6.28,14,14,14s14-6.28,14-14S31.72,10,24,10L24,10z"/>
	</g>
	<linearGradient id="SVGID_2_" gradientUnits="userSpaceOnUse" x1="13.3533" y1="13.3533" x2="42.1141" y2="42.1141">
		<stop  offset="0" style="stop-color:#F9F9F9"/>
		<stop  offset="0.2601" style="stop-color:#F0F1F2"/>
		<stop  offset="0.6784" style="stop-color:#D9DCDF"/>
		<stop  offset="1" style="stop-color:#C2C8CC"/>
	</linearGradient>
	<circle style="fill:url(#SVGID_2_);" cx="24" cy="24" r="13.5"/>
</g>
<linearGradient id="SVGID_3_" gradientUnits="userSpaceOnUse" x1="17.6871" y1="2.1924" x2="36.0112" y2="52.5375">
	<stop  offset="0" style="stop-color:#F44F5A"/>
	<stop  offset="0.443" style="stop-color:#EE3D4A"/>
	<stop  offset="1" style="stop-color:#E52030"/>
</linearGradient>
<path style="fill:url(#SVGID_3_);" d="M32.674,20.716c-2.223,3.853-4.446,7.706-6.669,11.567c-0.411,0.72-1.013,1.147-1.835,1.21
	c-0.918,0.063-1.646-0.324-2.112-1.116c-1.408-2.413-2.801-4.842-4.193-7.263c-0.847-1.472-1.701-2.943-2.548-4.423
	c-0.854-1.487,0.111-3.299,1.82-3.386c0.902-0.047,1.598,0.372,2.057,1.155c0.625,1.068,1.242,2.152,1.867,3.228
	c0.451,0.775,0.886,1.559,1.345,2.318c0.665,1.116,1.646,1.741,2.951,1.82c1.843,0.111,3.56-1.226,3.782-3.18
	c0.016-0.142,0.024-0.293,0.032-0.364c-0.008-0.633-0.127-1.171-0.38-1.669c-0.688-1.377,0.047-2.919,1.543-3.252
	c1.218-0.269,2.484,0.625,2.642,1.859C33.054,19.751,32.943,20.249,32.674,20.716L32.674,20.716z"/>
</svg>